<svg xmlns="http://www.w3.org/2000/svg" width="2000" height="677.726">
    <defs>
        <clipPath id="a" clipPathUnits="userSpaceOnUse">
            <path d="M724.693 294.45c-19.895.482-39.78 1.24-59.643 2.413a139.639 139.639 0 0 1-4.603 9.825c-3.324 6.428-5.626 13.324-7.77 20.218-2.113 7.323-3.736 14.846-4.014 22.48.244 6.946 1.169 13.847 1.885 20.757 1.153 6.487 1.608 13.089 2.707 19.58.586 4.518 1.382 8.325 2.281 12.572.682 3.364.153 1.036 1.932 6.873 1.729 6.247 2.958 11.02 4.354 17.82 1.867 8.74 3.27 17.556 4.39 26.42.357 2.136.651 4.28.953 6.424 6.126.176 12.251.371 18.373.658 15.721.805 31.416 1.956 47.121 2.99 14.36.856 28.74 1.545 43.13 1.493 14.809.039 29.619.076 44.427.26 13.182.194 26.364.502 39.537 1.03 11.978.476 23.95.838 35.94.632h140.711c10.298 0 20.596 0 30.894.004 9.288.004 18.576.008 27.863.029 7.594.021 15.189.037 22.782.178 7.335.163 14.677.367 21.986 1.045 4.974.52 9.854 1.362 14.68 1.681 2.214.182 4.413.498 6.623.717.25-1.05.432-2.061.713-3.129a211.21 211.21 0 0 1 3.17-10.945c-.217-3.844-.315-7.692-.055-11.543.29-6.449.707-12.894 1.554-19.297.586-4.454.973-8.795 1.197-13.387.458-5.46.839-6.604.612-11.613-.07-4.37-.136-8.743-.426-13.106a64.385 64.385 0 0 0-1.428-9.228c-1.159-4.867-2.626-9.659-3.775-14.53-1.266-5.033-2.616-10.126-3.613-15.314-.892-5.513-1.671-11.05-2.12-16.619-1.73-.322-3.424-.591-5.206-.994-15.573-3.519-7.727-1.724-23.538-5.389-16.128-3.71-32.182-7.736-48.181-11.972-2.19.786-4.337 1.692-6.543 2.433-14.808 4.706-29.909 8.848-45.555 9.205-10.131.102-20.248-.356-30.35-1.152-13.658-1.097-27.28-2.551-40.875-4.266-17.715-1.879-35.4-4.03-53.15-5.578-20.82-2.166-41.677-4.018-62.432-6.78-19.974-2.728-39.862-6.013-59.81-8.917-18.829-2.41-37.705-4.372-56.729-3.979z"
                  style="fill:none;fill-opacity:1;fill-rule:nonzero;stroke:none" class="cJqOodHq_0"/>
        </clipPath>
        <filter id="b" width="1" height="1" x="0" y="0" style="color-interpolation-filters:sRGB">
            <feColorMatrix
                    values="-3.31455 5.71141 1.80162 -0.161288 0 -3.31455 5.71141 1.80162 -0.161288 0 -3.31455 5.71141 1.80162 -0.161288 0 0 0 0 1 0"/>
        </filter>
    </defs>
    <path d="M560.115 607.21V485.23l4.75.527c15.48 1.717 21.43 2.98 33.42 7.1 29.36 10.083 35.84 12.199 48.16 15.724 7.057 2.02 16.987 5.447 22.069 7.618 14.883 6.359 19.165 6.96 57.007 8 21.26.585 35.432.58 38-.013 6.746-1.558 22.48-1.123 39.275 1.086 15.121 1.99 29.548 2.189 37.82.523 1.65-.332 4.358-.83 6.02-1.106 1.66-.276 20.335-.555 41.5-.621 21.677-.068 40.444-.56 42.98-1.127 2.474-.553 6.3-.987 8.5-.965 5.189.054 25.126-1.562 29-2.35 1.65-.337 5.563-.653 8.696-.704 3.134-.051 5.489-.43 5.234-.843-.255-.412-.006-1.032.553-1.377.56-.346 1.016-.2 1.016.325 0 .59 1.43.622 3.75.083 2.063-.479 6.085-.881 8.938-.894 2.854-.014 8.029-.667 11.5-1.452 6.12-1.385 10.17-1.935 23.812-3.239 3.575-.341 6.831-1.118 7.235-1.727.512-.77.74-.727.75.144.01.687.492 1.25 1.074 1.25.583 0 .764-.479.402-1.064-.446-.72.506-.846 2.952-.387 2.315.435 4.14.237 5.09-.55.813-.676 2.81-1.034 4.435-.795 1.626.239 2.785.155 2.574-.185-.21-.34 1.164-.62 3.053-.62 1.89 0 3.435.337 3.435.749 0 .411 1.35.277 3-.298s3.007-1.564 3.016-2.198c.01-.692.368-.595.899.243.658 1.04 1.99 1.213 5.234.678 2.393-.395 6.151-.844 8.351-1 2.2-.155 6.025-.64 8.5-1.077 4.499-.796 15.737-1.476 23.75-1.437 2.338.012 4.25-.335 4.25-.77 0-.434 2.025-.778 4.5-.765 2.475.013 4.5-.212 4.5-.5 0-.288 4.725-.443 10.5-.344 6.521.112 10.5-.202 10.5-.83 0-.594 1.195-.747 2.905-.371 1.598.35 3.182.19 3.52-.358.339-.547 2.365-.971 4.502-.942 2.138.03 4.379-.25 4.98-.622.601-.371 1.093-.247 1.093.277 0 .595 1.502.616 3.991.056 2.195-.493 4.333-.842 4.75-.775 2.985.478 8.275-.28 7.761-1.112-.395-.64.212-.698 1.691-.164 1.27.458 3.432.501 4.807.096 1.375-.405 5.538-.78 9.25-.836 3.713-.054 6.75-.49 6.75-.969 0-.478 2.488-.725 5.528-.55 3.315.192 5.293-.06 4.941-.63-.349-.566 2.248-.95 6.413-.95 3.85 0 7.266-.43 7.591-.957.325-.526 1.258-.7 2.072-.388.815.313 2.095.059 2.845-.564.75-.622 5.582-1.347 10.737-1.61 5.155-.264 9.523-.93 9.706-1.48.184-.55 1.197-1.001 2.25-1.001 1.88 0 1.917 2.427 1.917 121.5v121.5h-700zm377.667-84.685a.946.946 0 0 0-1.333 0c-.367.367-.067.667.666.667.734 0 1.034-.3.667-.667zm222.333-22.833c0-.275-.225-.5-.5-.5s-.5.225-.5.5.225.5.5.5.5-.225.5-.5zm-281 23c0-.275.225-.5.5-.5s.5.225.5.5-.225.5-.5.5a.501.501 0 0 1-.5-.5zm49.334-1.167a.946.946 0 0 1 1.333 0c.367.367.067.667-.667.667-.733 0-1.033-.3-.666-.667zm29-2a.946.946 0 0 1 1.333 0c.367.367.067.667-.667.667-.733 0-1.033-.3-.666-.667zm89.666-11.833c0-.275.225-.5.5-.5s.5.225.5.5-.225.5-.5.5a.501.501 0 0 1-.5-.5zm165-15c0-.275.225-.5.5-.5s.5.225.5.5-.225.5-.5.5a.501.501 0 0 1-.5-.5zM905.35 462.064c-.198-25.804-.47-30.823-1.735-31.872-.825-.685-1.5-1.81-1.5-2.5s.675-1.816 1.5-2.5c1.25-1.038 1.5-4.911 1.5-23.258V379.92l-2.563-2.376c-1.92-1.78-2.39-2.938-1.868-4.615.383-1.23.974-2.358 1.314-2.505 2.642-1.138 2.872-3.208 3.534-31.706.383-16.485.94-30.21 1.238-30.5.298-.29.385 13.038.194 29.618-.32 27.6-.2 30.308 1.401 32.078 2.312 2.555 2.216 5.546-.25 7.777-1.888 1.709-2 3.08-2 24.548 0 19.289.228 22.825 1.5 23.313 1.933.742 1.943 4.292.015 5.37-1.252.701-1.528 5.596-1.765 31.3l-.28 30.469zm2.691-86.734c1.312-2.45-.936-5.732-3.304-4.823-2.305.884-3.09 3.416-1.611 5.197 1.68 2.025 3.715 1.87 4.915-.374zm205.074 85.469c0-2.55 2.715-4.293 4.267-2.74 1.474 1.473-.19 5.133-2.334 5.133-1.372 0-1.933-.695-1.933-2.393zm2.684-.795c-.32-.798-.557-.56-.605.604-.043 1.055.193 1.645.526 1.313.332-.332.367-1.195.079-1.917zm-47.666.688c-.14-.55-.201-1.338-.136-1.75.065-.413-.422-.75-1.082-.75-.923 0-.927-.273-.017-1.184 1.59-1.59 2.478-.512 1.934 2.348-.244 1.285-.56 1.886-.7 1.336zm47.763-11.544c-.246-1.675-.072-3.276.386-3.56.458-.283.833 1.087.833 3.045 0 4.36-.617 4.621-1.22.515zm-47.78-.956c0-1.1-.035-2.327-.076-2.725-.04-.4.41-.887 1-1.084.612-.204 1.075.97 1.075 2.725 0 1.696-.45 3.084-1 3.084s-1-.9-1-2zm54.693-2.75c-.297-1.513-.124-3.178.383-3.7.57-.586.923.47.923 2.75 0 4.379-.554 4.782-1.306.95zm-156.488.702c-1.262-.506-2.95-2.488-3.75-4.404-1.715-4.105-1.928-14.797-.354-17.74.823-1.536.782-2.657-.16-4.416-1.801-3.368.867-8.776 8.035-16.286 3.144-3.294 6.495-7.177 7.447-8.63.952-1.453 3.323-4.404 5.27-6.559 3.948-4.37 3.213-4.786-4.07-2.305-2.602.887-4.947 1.398-5.209 1.136-.262-.263 2.694-1.497 6.569-2.743 4.975-1.6 6.77-2.598 6.106-3.397-1.35-1.626-1.79-7.143-.554-6.93.57.098 1.089-.577 1.153-1.5.065-.923.438-2.69.831-3.928.631-1.99.37-2.25-2.274-2.25-3.483 0-17.426 5.899-16.704 7.067.27.436-1.055 1.35-2.943 2.033-4.444 1.607-5.805 4.504-4.062 8.65 1.18 2.807 1.822 3.17 6.14 3.484l4.823.35-4.25.835c-2.337.46-4.25 1.184-4.25 1.61 0 .996-6.044 4.568-9.126 5.393-1.306.35-.236-.51 2.376-1.912 5.03-2.698 5.481-3.38 3.533-5.328-.67-.67-1.342-3.082-1.495-5.361-.152-2.28-.495-4.363-.762-4.63-.755-.754-11.6 3.626-15.776 6.372-4.63 3.044-4.874 5.986-.816 9.873 2.508 2.403 3.488 2.724 6.75 2.211 2.697-.424 3.23-.334 1.816.306-1.1.498-3.012.938-4.25.976-1.237.04-2.25.489-2.25 1 0 1.5-3.006 4.07-4.762 4.07-1.342 0-1.287-.243.321-1.419 1.905-1.392 1.898-1.466-.393-3.904-1.292-1.375-2.247-3.531-2.14-4.83.403-4.847.059-5.681-2.11-5.114-1.328.347-1.669.802-.94 1.253.63.389-.136.743-1.7.788-3.22.091-18.276 6.657-18.276 7.97 0 2.412 2.294 2.998 6.941 1.772 4.003-1.056 5.313-1.02 8.164.221 1.867.813 4.52 1.802 5.895 2.197l2.5.719-2.21 1.187c-1.215.654-4.153 1.454-6.528 1.78-3.57.49-5.27.08-9.79-2.357-8.502-4.583-8.014-6.027 3.903-11.558 5.484-2.545 11.243-4.921 12.798-5.281 1.555-.36 4.409-1.715 6.342-3.011 3.542-2.376 14.074-6.412 16.732-6.412.788 0 2.18-.874 3.093-1.94 2.615-3.057 20.024-10.394 24.267-10.227 2.207.086 4.593-.585 6.024-1.695 1.303-1.01 5.52-3.323 9.37-5.138 3.85-1.816 8.073-4.133 9.384-5.15 2.386-1.85 10.115-2.632 10.115-1.024 0 .455-1.462.687-3.25.515l-3.25-.312 3.044.96c3.597 1.136 6.872 5.24 7.757 9.723.509 2.575.11 3.835-2.014 6.36-2.439 2.897-3.032 3.11-7.468 2.684-4.731-.454-4.819-.411-4.819 2.365 0 2.13.74 3.21 3 4.379 1.65.853 3 1.776 3 2.051 0 .275-1.35-.198-3-1.051-2.288-1.184-3-1.25-3.004-.276 0 .702-1.4 2.764-3.104 4.582-2.982 3.182-3.032 3.38-1.34 5.25.967 1.07 3.004 1.944 4.527 1.944 1.522 0 4.105 1.125 5.739 2.5 1.634 1.375 4.148 2.5 5.586 2.5 1.439 0 6.477 2.088 11.197 4.64 7.19 3.887 9.698 4.72 15.464 5.132 7.727.553 12.935-.96 12.935-3.759 0-.959.99-3 2.198-4.537 4.004-5.09 3.281-6.638-3.59-7.687-1.041-.16-2.376-1.057-2.967-1.994-.846-1.344-.567-2.244 1.317-4.25 1.315-1.4 3.238-2.545 4.274-2.545s3.882-.504 6.326-1.119c4.397-1.107 4.442-1.163 4.442-5.433 0-3.524-.39-4.437-2.132-4.99-1.511-.48-1.769-.901-.883-1.449.794-.49-.635-1.397-3.933-2.492-2.85-.947-4.997-1.905-4.772-2.13.225-.225 2.166.225 4.314.999 4.689 1.689 10.309 4.599 8.9 4.608-.58.004-.856 1.916-.65 4.506.275 3.456.758 4.5 2.083 4.5.949 0 2.782 1.125 4.073 2.5 2.393 2.546 7.135 3.335 9.82 1.632 1.04-.66.787-1.663-1.196-4.735-4.65-7.2-6.655-9.267-9.396-9.683l-2.728-.415 2.604-.15c3.164-.182 6.409 2.77 10.188 9.269 2.413 4.15 3.14 4.732 5.374 4.305 3.553-.679 9.334 1.06 9.334 2.807 0 3.09-7.408 16.335-9.727 17.391-3.108 1.417-9.528 1.375-12.726-.082-3.16-1.44-7.539.232-7.562 2.89-.01 1.107-.29 1.35-.75.65-.404-.617-2.31-1.336-4.235-1.598-1.925-.262-4.305-.825-5.29-1.252-.985-.426-1.72-.382-1.632.098.666 3.65-3.697 5.69-11.929 5.573-6.579-.093-14.605-2.821-21.149-7.189-6.192-4.132-8.831-3.913-12.326 1.026-2.156 3.048-2.677 4.67-2.198 6.85.345 1.572.127 5.73-.484 9.24-.697 4.003-.786 7.873-.237 10.378 2.258 10.321-4.543 17.404-8.397 8.745-2.227-5.006-3.457-28.35-1.83-34.75.745-2.927.715-2.958-1.21-1.25-1.087.962-2.727 1.75-3.646 1.75-.92 0-1.672.636-1.672 1.414 0 .777-2.25 3.785-5 6.683-2.75 2.899-5 5.863-5 6.587 0 .723.887 2.203 1.971 3.287 3.225 3.224 7.98 13.504 7.353 15.899-.684 2.616-4.615 3.773-7.834 2.307-1.3-.592-4.836-4.075-7.858-7.74-4.73-5.734-5.37-6.997-4.585-9.06.894-2.35.865-2.365-1.54-.79-2.275 1.491-2.36 1.835-1.183 4.76.697 1.734 1.17 4.728 1.05 6.653a211.238 211.238 0 0 0-.297 6.795c-.048 2.091-.974 4.193-2.531 5.75-2.689 2.689-2.984 2.754-6.34 1.407zm6.83-5.061c.663-2.768-1.022-4.891-3.88-4.891-1.094 0-2.19.562-2.435 1.25-.246.687-.727.994-1.069.681-.342-.312.272-2.32 1.364-4.461 1.45-2.846 1.984-3.327 1.984-1.789 0 2.466 2.97 3.969 4.155 2.103 1.778-2.802-.01-10.61-2.13-9.3-.481.298-2.083-.01-3.56-.682-2.308-1.052-2.868-.97-4.003.58-1.726 2.362-1.691 12.132.059 16.32 1.504 3.602 3.028 4.505 2.19 1.299-.288-1.1-.115-2.251.383-2.56.499-.307.906.742.906 2.333 0 1.59.303 3.195.674 3.566 1.118 1.118 4.748-1.894 5.361-4.45zm-9.036-8.391c0-.275.225-.5.5-.5s.5.225.5.5-.225.5-.5.5a.501.501 0 0 1-.5-.5zm49.382 3.357c.507-1.443.554-3.463.103-4.49-.45-1.027-.856-3.442-.902-5.367-.076-3.198-.364-3.527-3.333-3.814-3.184-.307-3.25-.232-3.25 3.75 0 4.886.65 5.127 2.427.901 1.293-3.076 1.36-3.104 2.475-1.022.899 1.68.871 2.037-.128 1.66-.7-.263-2.057.902-3.015 2.59-1.594 2.806-1.61 3.322-.192 6.063 1.862 3.6 4.496 3.477 5.815-.271zm-4.382.643c0-.275.225-.5.5-.5s.5.225.5.5-.225.5-.5.5a.501.501 0 0 1-.5-.5zm1.015-4.915c.647-.647 1.324-.647 1.971 0 .648.648.31.986-.986.986-1.295 0-1.633-.338-.985-.986zm-18.803 4.577c-1.808-.964-2.97-2.07-2.583-2.458.388-.387.126-.704-.58-.704-.789 0-.273-1.328 1.333-3.434 1.44-1.888 2.618-3.851 2.618-4.362 0-2.027-5.595-7.7-7.5-7.602-3.98.202-4.5.422-4.5 1.898 0 .825-.45 1.5-1 1.5s-1 .876-1 1.947c0 2.656 12.002 15.064 14.52 15.01 1.506-.031 1.194-.46-1.308-1.795zm-4.202-8.662c-.012-1.1-.697-3.296-1.523-4.879-1.296-2.484-1.3-2.711-.033-1.66.808.67 1.734 2.056 2.059 3.078.379 1.194 1.197 1.664 2.289 1.315 1.32-.422 1.393-.325.33.433-.752.537-1.758 1.592-2.234 2.345-.658 1.037-.872.885-.888-.632zm-6.01-7.893c0-.216.699-.661 1.552-.989.89-.341 1.292-.174.941.393-.587.95-2.493 1.406-2.493.596zm14.29 12.937c-.226-3.076-1.814-4.664-3.872-3.874-2.17.832-2.54 3.537-.753 5.511 2.477 2.737 4.883 1.885 4.624-1.637zm-21.603-12.495c1.752-1.068 3.68-2.866 4.285-3.996.993-1.856.815-2.053-1.855-2.053-4.829 0-6.117-.93-6.117-4.42 0-2.257.889-4.057 3-6.08 3.253-3.116 3.894-4.78 1.487-3.857-2.842 1.09-10.662 12.474-10.935 15.917-.29 3.656.228 4.866 2.448 5.71 2.702 1.03 4.453.75 7.687-1.22zm-9.353-1.716a.946.946 0 0 1 1.333 0c.367.367.067.667-.667.667-.733 0-1.033-.3-.666-.667zm49.036.417c.332-1.238.61-4.613.617-7.5l.014-5.25h-3.3c-1.815 0-3.83-.53-4.476-1.176-1.318-1.318-1.532 2.945-.573 11.426.519 4.595.644 4.75 3.826 4.75 2.566 0 3.422-.495 3.893-2.25zm-4.12-7.413c-1.43-.577-1.699-2.337-.357-2.337.492 0 1.152.675 1.469 1.5.317.825.477 1.464.357 1.42-.12-.043-.781-.305-1.469-.583zm1.75-1.837c0-.275.225-.5.5-.5s.5.225.5.5-.225.5-.5.5a.501.501 0 0 1-.5-.5zm-20.1.505c2.805-2.748 5.1-5.673 5.1-6.5 0-3-2.832-1.413-5.415 3.032-.97 1.67-3.637 4.251-5.925 5.734-3.921 2.543-4.008 2.698-1.51 2.713 1.842.01 4.2-1.504 7.75-4.98zm-7.427 1.347c2.347-1.61 1.678-1.717-2.158-.346-2.664.952-2.708.923-.82-.54 1.098-.85 3.114-1.415 4.482-1.256 1.78.208 2.591-.248 2.856-1.606.327-1.676-.098-1.832-3.684-1.351-4.141.555-10.549 4.29-9.704 5.656.78 1.264 6.926.885 9.028-.557zm-6.473-1.263c1.375-1.125 2.95-2.048 3.5-2.052 1.07-.007-.738 1.378-4 3.063-1.328.687-1.16.347.5-1.011zm3.615-4.686c3.705-1.415 4.968-1.52 6.53-.545 2.266 1.415 3.862.722 3.84-1.667-.013-1.458-.15-1.484-.985-.191-.533.825-.976 1.027-.984.45-.008-.578.505-1.571 1.142-2.208.877-.877.21-2.02-2.75-4.712l-3.908-3.554-5.76 6.262c-5.72 6.218-7.547 9.647-6.254 11.738.424.687 1.39.181 2.605-1.364 1.062-1.35 3.998-3.244 6.524-4.21zm-55.615-1.903c-3.286-1.88-4.91-1.9-2.44-.032 1.067.807 2.615 1.466 3.44 1.464.87-.002.45-.603-1-1.432zm8.504-.494c-.26-.42-1.38-1.002-2.49-1.292-1.217-.319-1.768-.126-1.39.486.399.645-.237.756-1.748.303-2.239-.67-2.267-.627-.49.729 1.872 1.429 7.023 1.239 6.118-.226zm76.068.422c-.864-.864-1.572-2.194-1.572-2.954 0-.874.937-.447 2.543 1.159 2.916 2.917 4.446 2.262 7.15-3.06.86-1.69 1.224-2.755.81-2.366-.413.39-1.547-.275-2.52-1.477-1.04-1.284-3.028-2.247-4.827-2.338-1.683-.084-3.788-.882-4.679-1.773-2.248-2.248-3.174-2.042-5.097 1.13a140.735 140.735 0 0 1-3.523 5.46c-2.357 3.44-2.33 3.79.299 3.79 2.663 0 8.844-4.578 8.844-6.55 0-.797.754-1.45 1.675-1.45 1.421 0 1.346.35-.5 2.315-2.62 2.788-2.837 7.2-.425 8.606 2.639 1.536 3.593 1.28 1.822-.492zm1.928-2.428c.34-.55.843-1 1.118-1 .275 0 .222.45-.118 1-.34.55-.843 1-1.118 1-.275 0-.221-.45.118-1zm-10.973-3.209c.592-1.544 4.447-4.151 5.128-3.47.254.253-.912 1.438-2.59 2.633-1.746 1.243-2.831 1.601-2.538.837zm14.552-.375c.048-1.165.285-1.402.605-.604.288.722.253 1.585-.08 1.917-.332.332-.568-.258-.525-1.313zm78.921 2.584c.825-.533.985-.977.355-.985-.63-.008-2.204-1.133-3.5-2.498-2.902-3.06-4.563-3.14-7.52-.362-2.143 2.013-2.18 2.24-.564 3.468 2.026 1.538 9.066 1.775 11.23.377zm-97.2-3.2c1.915-1.915 1.4-4.497-1.32-6.638-2.973-2.338-1.42-3.343 2.742-1.773 2.517.95 3.149.664 7.12-3.234 3.246-3.185 4.381-5.09 4.45-7.466.11-3.748-4.016-8.699-7.229-8.672-1.711.014-1.509.37 1.187 2.098 4.024 2.576 4.318 3.629.362 1.291-3.68-2.173-5.303-1.505-9.107 3.745-3.435 4.742-3.534 7.386-.273 7.275 1.193-.041 1.914.339 1.601.844-.312.505-1.643.712-2.959.46-1.86-.355-2.154-.171-1.325.828.821.99.61 1.165-.922.764-1.349-.352-1.79-1.05-1.37-2.17.54-1.445.403-1.478-1.094-.26-.94.766-1.493 1.61-1.227 1.877.267.266-.229 1.864-1.101 3.55-1.557 3.01-1.528 3.119 1.556 5.874 3.314 2.961 6.907 3.61 8.91 1.607zm4.7-19.8c.34-.55.843-1 1.118-1 .275 0 .222.45-.118 1-.34.55-.843 1-1.118 1-.275 0-.221-.45.118-1zm3.5-.5c0-.275.225-.5.5-.5s.5.225.5.5-.225.5-.5.5a.501.501 0 0 1-.5-.5zm-22.54 15.75c3.797-4.085 4.834-6.73 1.432-3.655-2.45 2.214-6.286 7.405-5.473 7.405.305 0 2.123-1.688 4.04-3.75zm110.54 3.25c0-.275-.225-.5-.5-.5s-.5.225-.5.5.225.5.5.5.5-.225.5-.5zm-1-2c0-.275-.225-.5-.5-.5s-.5.225-.5.5.225.5.5.5.5-.225.5-.5zm-95-3.941c0-.243-.52-.762-1.154-1.155-.715-.442-.883-.274-.441.441.712 1.153 1.595 1.548 1.595.714zm-36-4.06c0-.274-.225-.5-.5-.5s-.5.226-.5.5a.5.5 0 0 0 1 0zm124-1c0-.274-.225-.5-.5-.5s-.5.226-.5.5a.5.5 0 0 0 1 0zm5.667-.166a.946.946 0 0 0-1.333 0c-.367.367-.067.667.666.667.734 0 1.034-.3.667-.667zm4.333-1.833c0-.275-.225-.5-.5-.5s-.5.225-.5.5.225.5.5.5.5-.225.5-.5zm-104-3c0-.275-.225-.5-.5-.5s-.5.225-.5.5.225.5.5.5.5-.225.5-.5zm4.565-6.014c2.035-2.483 4.765-4.782 6.067-5.109 1.373-.344 2.368-1.337 2.368-2.36 0-.972.3-3.262.665-5.088l.664-3.32-3.914 2.354c-2.153 1.295-5.184 3.007-6.736 3.805-4 2.055-5.28 5.344-3.887 9.991 1.008 3.36.974 3.543-.335 1.8-.801-1.068-1.457-2.38-1.457-2.917 0-.537-.237-.738-.528-.448-.783.784 1.324 5.806 2.437 5.806.526 0 2.622-2.032 4.656-4.514zm-3.404-.486c-.05-1.925.6-4.625 1.444-6 .993-1.619 1.282-1.795.82-.5-.393 1.1-1.043 3.8-1.444 6l-.73 4zm19.84-5.191c0-1.183-2.422-.988-3.707.297-.81.81-1.09.742-1.043-.25.154-3.257-.286-9.153-.655-8.773-.223.23-.663 2.056-.978 4.06-.44 2.803-.077 4.275 1.576 6.376 2.03 2.58 2.223 2.632 3.478.915.73-.999 1.328-2.18 1.328-2.625zm96.779 77.44c-.683-2.633.17-4.25 2.245-4.25 2.52 0 3.29 1.545 1.986 3.98-1.33 2.485-3.62 2.631-4.231.27zm3.22-1.25c0-1.948-1.06-2.605-2.264-1.402-.801.802.247 3.403 1.371 3.403.492 0 .893-.9.893-2zm-39.61-.425c-.91-2.371.378-4.766 2.357-4.385 1.107.214 1.753 1.25 1.753 2.81 0 2.851-3.156 4.06-4.11 1.575zm3.61-1.574c0-1.95-1.06-2.606-2.264-1.403-.801.802.247 3.403 1.371 3.403.492 0 .893-.9.893-2zm-178.842 0c0-1.375.227-1.938.505-1.25.277.687.277 1.812 0 2.5-.278.687-.505.125-.505-1.25zm14.51 1.333c-.368-.367-.654-1.38-.637-2.25.025-1.3.22-1.257 1.091.242 1.077 1.851.765 3.228-.455 2.008zm6.411-1.002c-.043-.642-.338-1.992-.654-3-.547-1.74-.519-1.743.57-.044.631.984.926 2.334.655 3-.355.875-.514.888-.57.044zm-28.063-2.022c.008-.445.451-1.484.984-2.31.836-1.292.972-1.266.985.192.008.93-.435 1.969-.985 2.309-.55.34-.993.254-.984-.191zm34.03-2.224c-.614-1.147-.699-2.085-.188-2.085 1.028 0 2.447 3.029 1.747 3.728-.243.244-.945-.496-1.559-1.643zm191.954-1.585c0-1.375.394-2.5.875-2.5.482 0 .875 1.125.875 2.5s-.393 2.5-.875 2.5c-.48 0-.875-1.125-.875-2.5zm-49.608.078c-.716-1.865 1.305-5.578 3.037-5.578 1.722 0 2.795 2.72 2.027 5.14-.694 2.185-4.275 2.494-5.064.438zm3.854-.828c.597-1.622-.158-3.75-1.329-3.75-.504 0-.917 1.125-.917 2.5 0 2.607 1.45 3.414 2.246 1.25zm-185.246-.75c.59-1.1 1.296-2 1.57-2 .276 0 .02.9-.57 2-.588 1.1-1.295 2-1.57 2-.275 0-.018-.9.57-2zm44.506-.994c-.999-1.104-1.35-2.006-.783-2.006 1.258 0 3.752 2.858 3.08 3.53-.265.265-1.299-.42-2.297-1.524zm180.161.327c-1.276-1.276-.656-5.4.9-5.997 2.289-.879 3.784 1.132 3.041 4.09-.613 2.445-2.494 3.354-3.941 1.907zm3.333-3.392c0-1.068-.675-1.941-1.5-1.941-1.483 0-2.096 3.07-.86 4.306 1.042 1.042 2.36-.278 2.36-2.365zm9.787 1.059c-.242-1.65-.068-3 .387-3 .454 0 .826 1.35.826 3s-.174 3-.386 3c-.213 0-.585-1.35-.827-3zm-243.287-1c.996-1.1 2.035-2 2.31-2 .275 0-.314.9-1.31 2-.995 1.1-2.035 2-2.31 2-.275 0 .315-.9 1.31-2zm193.568.581c-1.813-2.185-.885-5.033 1.762-5.41 2.057-.293 2.274.026 1.99 2.923-.36 3.666-1.917 4.698-3.752 2.487zm2.932-2.724c0-1.175-.524-1.85-1.25-1.607-1.229.41-1.75 2.51-.995 4.016.68 1.358 2.245-.32 2.245-2.409zm-141.427 1.621c-1.06-.802-1.694-1.69-1.41-1.974.284-.284 1.333.386 2.332 1.49 2.126 2.35 1.782 2.53-.922.484zm-60.297-3.102c1.581-1.862 1.609-2.227.25-3.355-.84-.697-1.526-1.745-1.526-2.33 0-.586 1.324.202 2.94 1.752 3.386 3.243 6.06 2.866 6.06-.853 0-2.834-1.967-4.645-2.063-1.9-.051 1.455-.24 1.368-.97-.445-.498-1.24-.868-3.715-.822-5.5.046-1.785-.42-4.52-1.038-6.08-.616-1.558-.819-3.322-.45-3.92.43-.694.063-.852-1.016-.438-1.418.545-1.518.333-.629-1.33.977-1.824-.26-3.024-1.264-1.227-.451.806-.1-.679.828-3.5.548-1.667.522-1.667-.55 0-.619.962-1.563 1.75-2.098 1.75-.536 0-.226-1.14.687-2.535 1.222-1.865 1.407-3.103.699-4.689-.656-1.47-1.195-1.777-1.697-.966-.404.655-.258 1.19.324 1.19 1.568 0 1.285 1.7-.39 2.342-.968.371-1.264.075-.893-.893.306-.797.047-1.45-.575-1.45-.623 0-1.561-1.128-2.085-2.507-.525-1.379-1.301-2.408-1.726-2.287-.424.12-1.784-.342-3.022-1.028-1.813-1.005-2.263-.998-2.317.037-.037.707-.539.312-1.114-.878-.576-1.19-1.783-2.376-2.683-2.636-.9-.26-2.536-.784-3.636-1.163-1.205-.415-.36.83 2.13 3.137 4.718 4.373 11.496 12.095 9.62 10.963-1.518-.918-1.594-.192-.221 2.126 2.133 3.602 7.23 18.854 7.236 21.651.003 1.672-.772 3.483-1.817 4.248-2.668 1.95-5.812-1.396-7.277-7.745-1.18-5.114-4.407-10.55-10.042-16.917l-3.097-3.5-.016 4.905c-.012 3.742.593 5.704 2.55 8.27 5.923 7.764 3.331 15.12-4.935 14.008-2.776-.373-4.767-.084-6.072.88-1.067.79-2.287 1.437-2.71 1.437-1.999 0-4.756-4.69-5.366-9.127-.544-3.953-1.31-5.402-3.899-7.377-4.49-3.424-15.577-8.307-21.836-9.616-9.278-1.94-18.058-8-22.326-15.411-1.042-1.808-1.235-1.812-5.684-.113-7.022 2.681-15.4 8.566-24.238 17.025-4.4 4.212-11.517 9.976-15.816 12.81-9.505 6.267-8.802 7.254 4.682 6.58 14.252-.711 23.746-4.67 34.01-14.18 4.997-4.63 6.04-4.649 1.57-.028-5.414 5.599-13.584 10.531-21.848 13.191-6.732 2.167-8.85 2.39-18.595 1.954-10.113-.452-11.4-.298-16 1.909-2.751 1.32-4.162 1.834-3.134 1.141 6.206-4.18 6.23-4.246 2.27-6.126-4.991-2.368-4.56-2.683 1.313-.962 3.868 1.134 5.43 1.196 7.135.283 1.543-.825 1.826-1.39.965-1.922-.894-.552-.783-.92.416-1.38.957-.368 1.382-.218 1.025.36-1.117 1.808.56 1.027 6.596-3.072 7.066-4.798 12.911-9.792 12.911-11.03 0-.487-3.825 2.068-8.5 5.676-4.675 3.609-8.5 6.323-8.5 6.032 0-.29 4.163-3.847 9.25-7.903 5.088-4.056 9.925-8.205 10.75-9.22 1.435-1.763 1.37-1.762-1.5.036-1.65 1.033-5.25 3.63-8 5.771-4.989 3.884-4.991 3.884-1.083.295 4.022-3.693 4.095-4.39.268-2.541-2.09 1.01-2.103.99-.275-.477 1.05-.843 3.296-2.78 4.99-4.305 6.822-6.143 10.847-9.273 11.923-9.273.623 0-.646 1.462-2.82 3.25-7.141 5.87-9.017 7.686-7.975 7.718.564.017 2.386-1.206 4.047-2.718a249.52 249.52 0 0 1 6.3-5.5c1.803-1.513 2.794-2.75 2.202-2.75-2.54 0-.679-1.923 4.673-4.827 3.163-1.716 5.3-3.127 4.75-3.135-.55-.008-2.958 1.105-5.352 2.474-5.547 3.171-6.451 3.11-2.648-.177l3-2.593-3.876 2.17c-6.127 3.43-5.341 1.69 1.04-2.3 3.176-1.987 5.113-3.615 4.305-3.617-.808-.003.226-1.031 2.297-2.285 3.15-1.907 3.559-2.518 2.5-3.737-.696-.802.217-.12 2.03 1.515 1.813 1.635 5.358 6.582 7.879 10.992 5.185 9.072 7.215 11.706 8.441 10.948.467-.288 2.536.622 4.599 2.024 4.084 2.775 5.818 3.257 4.673 1.298-.402-.688.169-.463 1.27.5 1.1.962 2.752 1.75 3.671 1.75.92 0 1.559.47 1.421 1.043-.238.995 10.205 5.336 10.977 4.563.204-.204-1.935-1.2-4.754-2.213-2.818-1.014-4.71-1.98-4.204-2.15 1.645-.548 10.378 3.71 9.736 4.749-.342.554-.197 1.008.324 1.008.52 0 3.216 1.56 5.99 3.468 2.773 1.908 6.536 4.165 8.362 5.015 1.826.85 2.42 1.306 1.32 1.013-1.23-.328.183 1.595 3.661 4.985 6.073 5.919 9.573 6.974 12.962 3.907 2.37-2.144 1.472-6.95-2.006-10.745-2.102-2.295-14.02-12.442-18.618-15.852-2.173-1.612-6.877-5.954-5.054-4.666 1.325.937.912-.137-1.299-3.375-3.304-4.84-5.738-6.828-2.72-2.222.911 1.39 1.343 3.035.96 3.654-.422.684-.246.85.447.42.744-.46.932-.155.538.871-.478 1.246-.906 1.328-2.036.39-1.155-.958-1.18-1.345-.133-2.01 1.226-.777 1.09-.927-1.12-1.228-.503-.07-1.29-.535-1.75-1.036-.478-.522-.335-.625.335-.242.812.466 1.085-.376.895-2.766-.22-2.772.072-3.41 1.513-3.3.982.073 1.536.539 1.23 1.033-.313.507.427.588 1.694.186 1.521-.483 2.031-.36 1.574.381-.424.686-.099.874.869.502.85-.326 1.3-.99 1-1.477-.3-.486.1-.636.889-.333 1.218.468 3.289-.232 10.168-3.433.55-.256.463.186-.194.983-.96 1.163-.861 1.46.5 1.512 3.74.14 10.833 1.616 18.555 3.86 4.591 1.334 8.288 1.949 8.48 1.41.189-.524 1.897 1.082 3.797 3.57 1.9 2.489 3.914 4.525 4.476 4.525.566 0 .738.89.386 2.001-.758 2.388 2.075 15.802 4.573 21.652.976 2.285 1.92 5.66 2.1 7.5.317 3.236.208 3.347-3.267 3.347-1.978 0-4.453.667-5.5 1.482-1.847 1.438-1.85 1.419-.13-.606zm-33.361-6.376c-.036-.99-.348-.819-.915.5-1.18 2.749-1.18 4.328 0 2.5.534-.825.945-2.175.915-3zm-2.915.5c0-1.556-.566-2.5-1.5-2.5-1.8 0-1.968 2.131-.3 3.8 1.656 1.655 1.8 1.55 1.8-1.3zm31.419.893c.87-.334 1.581-1.46 1.581-2.5 0-2.65-1.775-2.37-2.265.357-.223 1.237-.37-.769-.327-4.458.048-4.11-.403-7.188-1.165-7.95-.683-.683-1.243-2.02-1.243-2.97 0-.952-.594-2.324-1.321-3.05-.727-.728-1.514-1.772-1.75-2.322s-.8-.877-1.253-.726c-.453.152-.52-.216-.15-.816.371-.6-.158-1.77-1.175-2.599-1.018-.83-1.293-1.226-.612-.882.827.418 1.033.092.62-.983-.373-.974-1.245-1.368-2.207-.999-.875.336-1.27.29-.88-.1.391-.391.205-1.32-.413-2.066-.85-1.023-1.458-1.076-2.491-.22-1.07.889-1.368.746-1.368-.654 0-.984-.278-1.51-.619-1.17-.34.34-1.285-.047-2.099-.86-1.249-1.25-1.27-1.741-.13-3.145 1.134-1.4 1.132-1.534-.013-.844-.809.486-1.66.337-2.097-.368-.41-.666-.777.268-.831 2.122-.095 3.208 4.031 11.81 5.665 11.81.436 0 2.367 2.362 4.292 5.25 5.49 8.236 6.832 10.583 6.838 11.965.011 2.557 2.11 8.785 2.96 8.785.479 0 1.583-.273 2.453-.607zm-14.419-31.393c0-.734.3-1.034.667-.667a.946.946 0 0 1 0 1.333c-.367.367-.667.067-.667-.666zm-6.695 8.25c-.545-5.743-2.303-9.87-3.43-8.048-.421.682-1.08.926-1.463.543s-.127-1.383.568-2.221c.72-.868.828-1.524.25-1.524-.559 0-1.301.744-1.65 1.653-.572 1.492-.77 1.468-2.018-.239-.762-1.04-1.202-2.188-.979-2.548.223-.361-.365-.953-1.308-1.314-.942-.362-1.394-.338-1.003.053.391.39.277 1.233-.252 1.872-1.74 2.096 2.18 10.187 6.528 13.477 2.174 1.645 4.235 3.003 4.58 3.018.344.015.424-2.11.177-4.722zm-3.305-5.75c0-.275.225-.5.5-.5s.5.225.5.5-.225.5-.5.5a.501.501 0 0 1-.5-.5zm-90 6c0-.275-.225-.5-.5-.5s-.5.225-.5.5.225.5.5.5.5-.225.5-.5zm-4.5-2.5c.34-.55.393-1 .118-1s-.778.45-1.118 1c-.34.55-.393 1-.118 1s.778-.45 1.118-1zm7.5-.5c0-.275-.225-.5-.5-.5s-.5.225-.5.5.225.5.5.5.5-.225.5-.5zm44 0c0-.275-.225-.5-.5-.5s-.5.225-.5.5.225.5.5.5.5-.225.5-.5zm-3.5-2.105c-2.751-2.121-5.5-3.578-5.5-2.916 0 .587 6.159 4.532 7 4.485.275-.015-.4-.722-1.5-1.57zm5.5 1.105c0-.275-.225-.5-.5-.5s-.5.225-.5.5.225.5.5.5.5-.225.5-.5zm31.627-3.854c-.385-1.533-1.737-2.838-3.62-3.494-3.942-1.374-3.928.08.038 4.046 3.358 3.358 4.518 3.18 3.581-.552zm-75.627.854c0-.275-.225-.5-.5-.5s-.5.225-.5.5.225.5.5.5.5-.225.5-.5zm110-1c0-.275-.225-.5-.5-.5s-.5.225-.5.5.225.5.5.5.5-.225.5-.5zm-100.86-5.5c.473 0 .86-.476.86-1.057 0-1.281-5.477 1.824-7.817 4.433-1.09 1.215-.314.952 2.207-.75 2.14-1.445 4.277-2.626 4.75-2.626zm63.86 0c0-.55-1.237-.955-2.75-.9l-2.75.1 2.5.8c1.375.44 2.613.845 2.75.9.138.055.25-.35.25-.9zm2.667-.667a.946.946 0 0 0-1.333 0c-.367.367-.067.667.666.667.734 0 1.034-.3.667-.667zm9.817-1.969c-1.449-1.06-2.13-1.08-3.339-.097-1.272 1.032-1.41.944-.854-.54.556-1.483.358-1.61-1.208-.772-1.352.724-2.182.63-2.984-.336-.629-.758-2.2-1.131-3.62-.86-2.748.525-4.38 2.187-2.288 2.33.72.05 3.11.292 5.31.54 2.2.246 4.778.46 5.73.473.951.014 1.995.454 2.319.978.324.524 1.076.651 1.671.283.7-.432.44-1.139-.737-2zm15.516 1.136c0-.275-.225-.5-.5-.5s-.5.225-.5.5.225.5.5.5.5-.225.5-.5zm-35-2c0-.275-.225-.5-.5-.5s-.5.225-.5.5.225.5.5.5.5-.225.5-.5zm-53.5-1.5c.34-.55.393-1 .118-1s-.778.45-1.118 1c-.34.55-.393 1-.118 1s.778-.45 1.118-1zm6.5-.5c0-.275-.225-.5-.5-.5s-.5.225-.5.5.225.5.5.5.5-.225.5-.5zm-3.333-1.167a.946.946 0 0 0-1.333 0c-.367.367-.067.667.666.667.734 0 1.034-.3.667-.667zm2.333-.833c0-.275-.225-.5-.5-.5s-.5.225-.5.5.225.5.5.5.5-.225.5-.5zm-7-2c0-.275-.225-.5-.5-.5s-.5.225-.5.5.225.5.5.5.5-.225.5-.5zm4-2c0-.275-.225-.5-.5-.5s-.5.225-.5.5.225.5.5.5.5-.225.5-.5zm4-2c0-.275-.225-.5-.5-.5s-.5.225-.5.5.225.5.5.5.5-.225.5-.5zm-4-1c0-.275-.225-.5-.5-.5s-.5.225-.5.5.225.5.5.5.5-.225.5-.5zm340.702 55.868c-1.158-1.158-.792-5.048.582-6.189 1.987-1.649 3.914.21 3.546 3.42-.314 2.75-2.609 4.288-4.128 2.769zm3.298-2.868c0-2.553-1.364-3.337-2.53-1.452-.831 1.346.157 3.952 1.499 3.952.567 0 1.031-1.125 1.031-2.5zm-181.127.836c-1.245-1.509-1.163-1.552.877-.465 2.327 1.24 2.9 2.129 1.373 2.129-.483 0-1.495-.749-2.25-1.664zm154.127-.274c.825-.482 6.675-3.585 13-6.896 8.827-4.619 11.507-6.488 11.53-8.04.017-1.11.354-2.344.75-2.74.396-.396.72.246.72 1.426 0 1.944.243 2.034 2.586.967 2.137-.974 2.488-1.663 2.025-3.979-.309-1.54-.122-2.8.414-2.8.537 0 .975 1.117.975 2.484v2.483l3.5-1.669c3.629-1.73 4.657-4.64 2-5.66-2.147-.824-1.852-5.278.457-6.895 1.624-1.138 2.014-2.802 2.296-9.807l.34-8.436.204 8.51c.174 7.297.488 8.686 2.203 9.758 1.163.725 2 2.332 2 3.834 0 1.744-.65 2.755-2 3.108-1.1.288-2.003 1.258-2.008 2.156-.01 1.007-2.883 3.165-7.5 5.625-4.12 2.196-7.492 4.544-7.492 5.219 0 .684-.668.97-1.512.646-2.276-.873-4.469 1.499-4.637 5.016-.145 3.023-.164 3.035-.567.378-.229-1.513-.62-2.75-.87-2.75s-4.486 2.025-9.414 4.5-9.306 4.486-9.73 4.47c-.423-.017-.095-.426.73-.908zm-23.22-3.106c-.245-1.675-.071-3.276.387-3.56.458-.283.833 1.087.833 3.045 0 4.36-.617 4.621-1.22.515zm52.887 1.377c-1.315-1.315-.656-6.124.924-6.73 2.212-.848 3.41.12 3.41 2.756 0 3.221-2.654 5.654-4.334 3.974zm3.333-3.333c0-1.111-.666-2-1.5-2-.833 0-1.5.889-1.5 2 0 1.11.667 2 1.5 2 .834 0 1.5-.89 1.5-2zm-182.558.531c-1.068-.807-1.465-1.482-.883-1.5.583-.017 1.933.63 3 1.437 1.068.807 1.465 1.482.883 1.5-.583.017-1.933-.629-3-1.437zm131.558-4.865c0-2.016.442-3.666.98-3.666.54 0 .822 1.368.627 3.04-.519 4.458-1.607 4.882-1.607.626zm-346 1.834c0-.275.225-.5.5-.5s.5.225.5.5-.225.5-.5.5a.501.501 0 0 1-.5-.5zm112-2c-1.291-1.375-1.99-2.5-1.551-2.5.438 0 .272-.632-.37-1.405-1.838-2.216 6.614-3.41 8.533-1.205.768.881.854 1.154.192.606-1.54-1.275-5.504-1.29-6.285-.026-.33.534.105 2.334.966 4 1.905 3.683 1.585 3.797-1.485.53zm104-1.5c-1.828-1.182-.249-1.182 2.5 0 1.32.566 1.49.878.5.914-.825.03-2.175-.381-3-.914zm-94.666-.667a.946.946 0 0 1 1.333 0c.367.367.067.667-.667.667-.733 0-1.033-.3-.666-.667zm-141.461-2.997c-1.245-1.509-1.163-1.552.877-.465 2.327 1.24 2.9 2.129 1.373 2.129-.483 0-1.495-.749-2.25-1.664zm181.669-2.557c-1.627-.597-3.938-2.029-5.135-3.182-2.905-2.8-7.678-10.597-6.487-10.597.52 0 1.198.787 1.506 1.75.907 2.83 6.93 9.054 9.828 10.156 3.054 1.161 4.616-.153 2.794-2.35-.619-.745-1.28-3.074-1.468-5.176-.263-2.93-1.71-5.447-6.211-10.802-10.96-13.04-13.118-15.096-17.035-16.241-7.598-2.221-14.184-5.138-18.852-8.35-3.4-2.34-7.997-4.068-16.128-6.065-6.255-1.536-15.081-4.434-19.613-6.44-11.035-4.885-17.427-7.176-22.24-7.971-3.145-.52-3.68-.412-2.5.5 1.215.942 1.026 1.038-1 .508-1.376-.36-4.3-1.115-6.5-1.677s-7.041-.816-10.758-.565c-5.772.39-8.377 1.287-17.867 6.153-6.24 3.2-14.545 6.551-18.947 7.647-4.311 1.073-8.646 2.203-9.633 2.512-1.547.484-1.53.393.127-.66 1.058-.672 5.333-2.095 9.5-3.162 4.532-1.16 11.396-4.09 17.077-7.288 11.319-6.371 18.892-8.155 27.702-6.527 3.116.576 7.526 1.048 9.8 1.048 4.877 0 13.015 2.207 19.998 5.424 2.75 1.266 9.05 2.848 14 3.515 22.749 3.063 22.295 2.94 25.511 6.905a347.38 347.38 0 0 1 4.73 5.958c.97 1.266 4.237 3.156 7.261 4.199 3.024 1.043 7.298 2.541 9.498 3.33 2.782.997 5.614 3.373 9.3 7.801 2.915 3.502 7.504 9.015 10.199 12.25 3.919 4.705 4.792 6.412 4.368 8.537-.36 1.8.129 3.449 1.518 5.118 2.52 3.028 2.952.602.513-2.88-.88-1.257-1.35-2.538-1.042-2.846.307-.307 1.348 1.096 2.312 3.119 2.782 5.833.085 8.628-6.126 6.35zm-43.84-51.196c-.195-.596-1.895-1.586-3.778-2.201-4.565-1.491-18.89-2.761-17.014-1.509.775.518 2.012.71 2.75.427.737-.283 1.34.01 1.34.652 0 .641.413.911.916.6.504-.312 2.154-.096 3.668.48 2.064.784 2.945.73 3.53-.216.584-.946.944-.83 1.44.462.363.947 1.089 1.722 1.612 1.722.524 0 .637-.563.253-1.25-.385-.688.06-.538.988.333 1.917 1.798 4.83 2.137 4.295.5zm-25.035-5.25a.946.946 0 0 0-1.333 0c-.367.367-.067.667.666.667.734 0 1.034-.3.667-.667zm125.083 57.004c.688-.277 1.813-.277 2.5 0 .688.278.125.505-1.25.505s-1.937-.227-1.25-.505zm165.105-2.337c-.617-3.496-.361-4.84.716-3.763.314.314.42 2.076.236 3.917l-.334 3.346zm-412.815-.452c-2.005-2.417-.316-5.548 2.993-5.548 3.517 0 5.818 3.27 3.914 5.564-1.539 1.854-5.362 1.845-6.907-.016zm5.784-1.884c.429-2.21-2.435-3.232-4.427-1.579-1.427 1.185-1.406 1.434.223 2.626 2.181 1.595 3.769 1.2 4.204-1.047zm242.926-1.327c.688-.277 1.813-.277 2.5 0 .688.278.125.505-1.25.505s-1.937-.227-1.25-.505zm-223.75-3.587c0-.36 2.7-3.696 6-7.414 3.3-3.717 6-7.114 6-7.548 0-.433.472-.788 1.048-.788 1.485 0-4.094 7.756-8.955 12.453-2.251 2.174-4.093 3.658-4.093 3.297zm386.667-3.417c-1.2-1.2-.699-5.062.822-6.323 1.203-1 1.604-.933 2.094.344.333.869.374 2.157.09 2.863-.323.805-.544.632-.593-.467-.043-.963-.56-1.75-1.149-1.75-.588 0-.915 1.012-.726 2.25.189 1.237.928 2.126 1.644 1.975.715-.151 1.015.186.667.75-.728 1.177-1.884 1.323-2.849.358zm-361.667-2.833c1.292-1.375 2.574-2.5 2.849-2.5.275 0-.557 1.125-1.849 2.5-1.291 1.375-2.573 2.5-2.848 2.5-.275 0 .557-1.125 1.848-2.5zm196.1.204c-1.264-2.106-1.243-2.127.48-.478.99.95 1.586 1.941 1.323 2.204-.263.263-1.074-.513-1.802-1.726zm96.65.59c1.238-.238 3.263-.238 4.5 0 1.238.238.225.433-2.25.433s-3.487-.195-2.25-.433zm-298.75-5.222c5.532-5.128 13.314-11.072 14.496-11.072.35 0-2.723 2.669-6.829 5.931-4.105 3.263-7.76 6.41-8.12 6.995-.362.585-1.645 1.554-2.852 2.153-1.207.6.28-1.203 3.305-4.007zm293.813 4.245c.722-.29 1.584-.254 1.917.078.332.333-.259.57-1.313.526-1.165-.048-1.402-.285-.604-.604zm13.52.016a.946.946 0 0 1 1.334 0c.367.367.067.667-.667.667-.733 0-1.033-.3-.666-.667zm-17-1a.946.946 0 0 1 1.334 0c.367.367.067.667-.667.667-.733 0-1.033-.3-.666-.667zm20.667.167c0-.275.225-.5.5-.5s.5.225.5.5-.225.5-.5.5a.501.501 0 0 1-.5-.5zm64 .07c0-.275.9-.982 2-1.57 1.1-.589 2-.846 2-.57 0 .274-.9.981-2 1.57-1.1.588-2 .845-2 .57zm-88-1.07c0-.275.225-.5.5-.5s.5.225.5.5-.225.5-.5.5a.501.501 0 0 1-.5-.5zm-276.5-1.5c.34-.55.843-1 1.118-1 .275 0 .222.45-.118 1-.34.55-.843 1-1.118 1-.275 0-.222-.45.118-1zm272.834.333a.946.946 0 0 1 1.333 0c.367.367.067.667-.667.667-.733 0-1.033-.3-.666-.667zm-233.93-1.488c-.441-.715-.273-.883.442-.44.635.392 1.154.911 1.154 1.154 0 .834-.883.439-1.595-.714zm151.29.515c-.351-.351-.4-1.026-.107-1.5.727-1.176 3.413-1.091 3.413.108 0 .533-.748.682-1.664.33-1.119-.429-1.427-.255-.94.532.776 1.256.348 1.58-.702.53zm76.806-.36c-1.26-.542-1.445-.86-.5-.86.825 0 2.4.387 3.5.86 1.261.541 1.446.86.5.86-.825 0-2.4-.388-3.5-.86zm102.5.5c0-.275.225-.5.5-.5s.5.225.5.5-.225.5-.5.5a.501.501 0 0 1-.5-.5zm-366.987-1.284c.012-.73 6.49-5.216 7.532-5.216.316 0 .323.404.018.899-.805 1.302-7.565 5.167-7.55 4.317zm359.371-.658c-.88-2.295.01-5.058 1.63-5.058.946 0 1.6 1.181 1.8 3.25.235 2.439-.085 3.25-1.282 3.25-.877 0-1.843-.649-2.148-1.442zm2.616-1.558c0-1.1-.45-2-1-2s-1 .9-1 2 .45 2 1 2 1-.9 1-2zm-424 1.159c-1.518-.46 1.232-.739 7-.709 9.84.051 12.04-.654 22-7.06 1.921-1.235 1.805-.99-.5 1.056-5.6 4.973-10.476 6.865-18.5 7.178-4.125.161-8.625-.048-10-.465zm433-.16c.825-.532 1.95-.969 2.5-.969s.325.437-.5.97c-.825.533-1.95.97-2.5.97s-.325-.437.5-.97zm-160-.5c0-.274.225-.5.5-.5s.5.226.5.5a.5.5 0 0 1-.5.5.501.501 0 0 1-.5-.5zm-150-2c0-.274.225-.5.5-.5s.5.226.5.5a.5.5 0 0 1-.5.5.501.501 0 0 1-.5-.5zm148.163-2.042c-1.676-3.677-1.356-4.462.456-1.119.846 1.561 1.35 3.026 1.122 3.254-.229.229-.939-.732-1.578-2.135zm61.968 1.348c-3.503-.39-6.56-.901-6.793-1.135-.433-.432 17.34.27 19.162.758 2.667.714-6.767 1.001-12.369.377zm94.948-.482c.046-1.05.293-1.293.584-.573.868 2.15 2.337 1.365 2.337-1.25 0-2.511-1.392-3.389-2.341-1.475-.28.563-.392.45-.25-.25.142-.702.896-1.275 1.675-1.275 2.18 0 1.869 5.885-.334 6.31-1.169.224-1.723-.269-1.67-1.487zm-303.079.177c0-.275.225-.5.5-.5s.5.225.5.5-.225.5-.5.5a.501.501 0 0 1-.5-.5zm-136.97-1.461c-.81-.512-1.227-1.175-.928-1.475.3-.299 1.412.112 2.471.914 2.109 1.595.828 2.06-1.544.56zm361.52-.446c1.677-.73 4.265-2.772 5.75-4.537 3.92-4.659 3.51-10.047-1.17-15.402-1.554-1.778-1.636-1.76-2.271.5-.597 2.126-.669 2.064-.759-.66-.08-2.412-.742-3.267-3.35-4.327-1.787-.726-4.15-1.748-5.25-2.27-1.724-.819-1.656-.874.5-.4 8.723 1.92 8 2.08 8-1.765 0-2.43.542-3.724 1.75-4.185 1.404-.534 1.503-.416.5.593-1.838 1.853-1.64 8.86.25 8.86.825 0 1.41.337 1.298.75-.11.412.79 2.644 2 4.96 2.444 4.671 2.778 8.313 1.067 11.605-2.016 3.878-7.084 7.734-10.049 7.646-.723-.022.057-.637 1.734-1.368zm68.682-1.593c0-1.925.206-2.713.458-1.75.251.962.251 2.537 0 3.5-.252.962-.458.175-.458-1.75zm28.477 1.372c1.764-1.495 2.284-3.182 2.583-8.372l.374-6.5-.083 6.882c-.075 6.235-.318 7.024-2.583 8.373l-2.5 1.49zm-325.209-1.908c-1.65-.756-2.325-1.378-1.5-1.384.825-.005 2.625.634 4 1.42 3.162 1.807 1.473 1.783-2.5-.036zm123.5-1.964c.685-.825 1.695-1.5 2.245-1.5.558 0 .45.663-.245 1.5-.684.825-1.694 1.5-2.244 1.5-.558 0-.45-.664.244-1.5zm-121.666-.167a.946.946 0 0 1 1.333 0c.367.367.067.667-.667.667-.733 0-1.033-.3-.666-.667zm2.666.167c0-.275.225-.5.5-.5s.5.225.5.5-.225.5-.5.5a.501.501 0 0 1-.5-.5zm225.158-1.5c0-1.375.227-1.938.505-1.25.277.687.277 1.812 0 2.5-.278.687-.505.125-.505-1.25zm-30.658 0c-2.548-1.095.081-1.095 3.5 0 2.01.643 2.108.806.5.83-1.1.016-2.9-.358-4-.83zm8.05-1.131c2.799-1.36 4.708-4.6 5.52-9.37.658-3.87.684-3.893.805-.7.201 5.296-3.965 11.431-7.559 11.133-.448-.037.106-.516 1.233-1.063zm92.169-.12c-.637-1.774 1.09-4.75 2.758-4.75 1.944 0 2.772 1.643 2.02 4.01-.696 2.195-4.07 2.718-4.778.74zm4.105-2.082c.191-.987-.32-1.667-1.25-1.667-.928 0-1.574.855-1.574 2.083 0 2.437 2.337 2.093 2.824-.416zm-378.482.588c.83-1.342 10.4-5.79 14.158-6.58 2.862-.601 2.838-.557-.5.959a830.746 830.746 0 0 0-8 3.704 867.495 867.495 0 0 1-5.389 2.518c-.489.222-.61-.048-.269-.6zm194.658.367c0-.208.788-.995 1.75-1.75 1.586-1.244 1.622-1.208.378.378-1.306 1.665-2.128 2.195-2.128 1.372zm37-.122c0-.275.225-.5.5-.5s.5.225.5.5-.225.5-.5.5a.501.501 0 0 1-.5-.5zm120.169-3.01c-.118-2.804-.77-4.385-2.169-5.258-2.66-1.662-2.737-6.863-.114-7.696 1.036-.329 3.061-.062 4.5.593 3.203 1.46 3.588 5.781.677 7.6-1.203.75-2.088 2.644-2.332 4.99l-.394 3.78zm3.831-8.49c0-2.197-3.447-4.426-5.578-3.609-1.99.764-1.777 5.31.303 6.474 2.28 1.277 5.275-.35 5.275-2.865zM973.45 371.525a.946.946 0 0 1 1.333 0c.367.367.067.667-.667.667-.733 0-1.033-.3-.666-.667zm149.416-.332c1.512-1.695 1.636-4.643.225-5.343-.563-.28-.45-.394.25-.255 2.009.4 2.057 4.13.073 5.636-1.536 1.166-1.616 1.16-.548-.038zm-2.592-2.001c0-1.375.227-1.938.505-1.25.277.687.277 1.812 0 2.5-.278.687-.505.125-.505-1.25zm-392.072.5c.104-1.895 1.77-5.084 1.829-3.5.03.825-.381 2.175-.915 3-.533.825-.944 1.05-.914.5zm146.914-2c-.717-.865-.814-1.5-.229-1.5.558 0 1.274.675 1.591 1.5.317.825.42 1.5.23 1.5-.19 0-.907-.675-1.592-1.5zm55.5-.5c.996-1.1 2.035-2 2.31-2 .275 0-.314.9-1.31 2-.995 1.1-2.035 2-2.31 2-.275 0 .315-.9 1.31-2zm201.8-3c0-3.025.188-4.263.417-2.75.229 1.512.229 3.987 0 5.5-.23 1.512-.417.275-.417-2.75zm-252.716.357c-.953-2.483.097-2.822 1.37-.443.615 1.148.7 2.086.189 2.086-.51 0-1.212-.74-1.56-1.643zm44.416 0c0-.536.7-1.849 1.556-2.916 1.466-1.83 1.487-1.799.364.559-1.458 3.06-1.92 3.628-1.92 2.357zm131.188-3.04c-2.372-.84-4.136-1.702-3.92-1.919.457-.456 9.732 2.59 9.732 3.196 0 .626-1.137.376-5.812-1.277zm-169.688-1.317c-.375-1.183-.457-2.376-.182-2.651.275-.275.807.468 1.182 1.65.376 1.184.458 2.376.183 2.651-.275.275-.807-.467-1.183-1.65zm32.586 1c-.03-.825.381-2.175.914-3 1.182-1.828 1.182-.25 0 2.5-.566 1.318-.878 1.489-.914.5zm-25.716-2.607c-.373-1.041-.86-2.23-1.083-2.643-.222-.413.02-.75.538-.75.997 0 2.402 4.106 1.66 4.85-.241.24-.743-.416-1.115-1.457zm19.825-.893c.02-1.65.245-2.204.498-1.231.254.973.237 2.323-.037 3-.274.677-.481-.12-.46-1.77zm112.541-.757-1.764-3.243 2.014 2.36c1.714 2.01 2.63 4.155 1.764 4.133-.137-.003-1.044-1.466-2.014-3.25zm24.264 1.757c0-.275.225-.5.5-.5s.5.225.5.5-.225.5-.5.5a.501.501 0 0 1-.5-.5zm-150.655-2.043c-.325-.85-.368-1.767-.095-2.04.273-.273.736.421 1.03 1.543.623 2.383-.07 2.75-.935.497zm210-1c-.325-.85-.368-1.767-.096-2.04.274-.273.737.421 1.03 1.543.624 2.383-.069 2.75-.934.497zm3.393-.865c.281-1.472-.064-2.578-.889-2.846-.954-.31-.91-.408.151-.334 1.608.112 2.789 5.588 1.206 5.588-.51 0-.721-1.084-.468-2.408zm30.262 1.408c0-.734.3-1.034.667-.667a.946.946 0 0 1 0 1.333c-.367.367-.667.067-.667-.666zm-70-2.5c0-.275.225-.5.5-.5s.5.225.5.5-.225.5-.5.5a.501.501 0 0 1-.5-.5zm3 0c0-.275.225-.5.5-.5s.5.225.5.5-.225.5-.5.5a.501.501 0 0 1-.5-.5zm-44.187-1.183c.722-.29 1.584-.254 1.917.078.332.333-.259.57-1.313.526-1.165-.048-1.402-.285-.604-.604zm-5.544-1.01c.973-.254 2.323-.237 3 .037.678.274-.119.481-1.769.46-1.65-.02-2.203-.244-1.23-.497zm115.065.026a.946.946 0 0 1 1.333 0c.367.367.067.667-.667.667-.733 0-1.033-.3-.666-.667zm-68.334-1.333c0-.734.3-1.034.667-.667a.946.946 0 0 1 0 1.333c-.367.367-.667.067-.667-.666zm2.405-1.155c-.442-.715-.274-.883.44-.44.636.392 1.155.911 1.155 1.154 0 .834-.883.439-1.595-.714zm16.095-1.845c.34-.55 1.068-1 1.618-1s.722.45.382 1c-.34.55-1.068 1-1.618 1s-.721-.45-.382-1zm-36.5-3.5c3.575-1.872 6.95-3.403 7.5-3.403.55 0-1.925 1.531-5.5 3.403-3.575 1.871-6.95 3.403-7.5 3.403-.55 0 1.925-1.532 5.5-3.403zm75.442 1.945c-1.864-1.494-1.852-1.512.308-.465 1.238.6 2.25 1.3 2.25 1.555 0 .765-.518.544-2.558-1.09zm-23.942-4.961c3.85-1.842 7.9-3.34 9-3.33 1.592.014 1.49.178-.5.804-1.375.433-5.143 1.97-8.374 3.415-8.369 3.742-8.46 3.098-.126-.889zm16.25.95c-2.612-1.36-4.75-2.697-4.75-2.97 0-.274 2.25.642 5 2.036 2.75 1.393 5 2.75 5 3.017 0 .661.09.697-5.25-2.083zm-431.75-.375c0-.518.445-1.216.989-1.552.567-.35.734.05.393.94-.665 1.733-1.382 2.05-1.382.612zm29.036-.994c-1.471-2.747-1.304-3.797.964-6.065 2.403-2.403 5.289-2.57 7.429-.429 2.107 2.107 1.98 4.021-.429 6.429-2.555 2.555-6.614 2.589-7.964.065zm6.764-1.265c1.816-1.816 1.444-3.588-.911-4.336-2.564-.813-5.432 1.678-4.557 3.958.716 1.866 3.77 2.077 5.468.378zm337.2.7c0-.275.225-.5.5-.5s.5.225.5.5-.225.5-.5.5a.501.501 0 0 1-.5-.5zm2-.893c0-.216.699-.661 1.552-.989.89-.341 1.292-.174.941.393-.587.95-2.493 1.406-2.493.596zm-388.5-4.607c.34-.55 1.068-1 1.618-1s.722.45.382 1c-.34.55-1.068 1-1.618 1s-.722-.45-.382-1zm21.927-4.744c1.61-1.78 3.148-3.015 3.417-2.746.27.27.302.602.073.74-.23.137-1.767 1.373-3.417 2.746l-3 2.496zm384.573 2.35c0-.215.699-.66 1.552-.988.89-.341 1.292-.174.941.393-.587.95-2.493 1.406-2.493.596zm-399.5-2.861c2.7-2.026 10.78-4.694 16.404-5.415 2.528-.325 8.646-2.568 13.596-4.986 12.167-5.943 23.033-8.017 33.32-6.357 6.398 1.032 15.998 3.737 13.992 3.942-.378.039-3.753-.65-7.5-1.53-8.318-1.956-23.52-1.412-30.55 1.093-8.041 2.864-16.148 7.648-14.612 8.622 1.477.936-1.886 1.327-8.228.956-3.095-.18-6.101.632-16.422 4.438l-2 .738zm31-.745c-.782-1.266.542-1.266 2.5 0 1.293.835 1.267.971-.19.984-.93.008-1.97-.434-2.31-.984zm54.942-7.469c-1.068-.807-1.434-1.482-.814-1.5.62-.017 1.688.644 2.372 1.469 1.581 1.904.935 1.918-1.558.031zm450.558-10.04c-6.911-.752-20.676-1.13-34.5-.948-26.361.347-53.063-.718-73.703-2.94a6761.19 6761.19 0 0 0-23.797-2.519c-17.248-1.78-37.342-4.176-48-5.726-5.775-.84-16.125-2.351-23-3.359-10.161-1.489-48.975-8.132-70-11.981-6.825-1.25-49.504-8.491-76.5-12.98a10874.03 10874.03 0 0 1-47.388-8.012c-12.864-2.212-30.414-4.695-39-5.52-25.547-2.454-84.788-1.588-108.59 1.587-4.389.586-11.476 1.142-15.75 1.236-4.274.094-7.771.536-7.771.984 0 .447-.788.732-1.75.634-.963-.098-1.976-.113-2.25-.034-.276.079-4.1.354-8.5.612-11.04.646-10.83.615-12.443 1.861-1.099.85-1.263.817-.69-.136.957-1.595-.588-1.63-2.168-.05-.933.933-1.2.906-1.2-.12 0-1.072-3.823-1.202-20.25-.69-11.137.347-25.312.905-31.5 1.24l-11.25.61V29.191h700v283l-14.25-.13c-7.837-.07-19.425-.691-25.75-1.38zm-626-242.991c0-.275-.225-.5-.5-.5s-.5.225-.5.5.225.5.5.5.5-.225.5-.5zm11.667-1.167c-.367-.367-.667-.067-.667.667 0 .733.3 1.033.667.666a.946.946 0 0 0 0-1.333zm-9.667.167c0-.275-.225-.5-.5-.5s-.5.225-.5.5.225.5.5.5.5-.225.5-.5zm18-1c0-.275-.225-.5-.5-.5s-.5.225-.5.5.225.5.5.5.5-.225.5-.5zm2 0c0-.275-.225-.5-.5-.5s-.5.225-.5.5.225.5.5.5.5-.225.5-.5zm-22-1c0-.275-.225-.5-.5-.5s-.5.225-.5.5.225.5.5.5.5-.225.5-.5zm2-1c0-.275-.225-.5-.5-.5s-.5.225-.5.5.225.5.5.5.5-.225.5-.5zm10 0c0-.275-.225-.5-.5-.5s-.5.225-.5.5.225.5.5.5.5-.225.5-.5zm-25 201c0-.275.225-.5.5-.5s.5.225.5.5-.225.5-.5.5a.501.501 0 0 1-.5-.5zm73-3c0-.275.225-.5.5-.5s.5.225.5.5-.225.5-.5.5a.501.501 0 0 1-.5-.5z"
          clip-path="url(#a)" style="fill:#333;fill-opacity:1;filter:url(#b);stroke:#333; stroke-width=2%"
          transform="translate(-2495.69 -1132.68) scale(3.84744)" class="cJqOodHq_1"/>
    <style>
        .cJqOodHq_0 {
        stroke-dasharray: 1301 1303;
        stroke-dashoffset: 1302;
        animation: cJqOodHq_draw_0 5000ms cubic-bezier(0.65, 0, 0.35, 1) 0ms forwards, cJqOodHq_fade 2500ms cubic-bezier(0.65, 0, 0.35, 1) 0ms forwards, fillOpacityAnimation 2500ms cubic-bezier(0.33, 1, 0.68, 1) 0ms forwards;
        }

        .cJqOodHq_1 {
        stroke-dasharray: 10581 10583;
        stroke-dashoffset: 10582;
        animation: cJqOodHq_draw_1 5000ms cubic-bezier(0.65, 0, 0.35, 1) 0ms forwards, cJqOodHq_fade 2500ms cubic-bezier(0.65, 0, 0.35, 1) 0ms forwards, fillOpacityAnimation 2500ms cubic-bezier(0.33, 1, 0.68, 1) 0ms forwards;
        }

        @keyframes cJqOodHq_draw {
        100% {
        stroke-dashoffset: 0;
        }
        }

        @keyframes cJqOodHq_fade {
        0% {
        stroke-opacity: 1;
        }
        50% {
        stroke-opacity: 1;
        }
        100% {
        stroke-opacity: 0;
        }
        }

        @keyframes cJqOodHq_draw_0 {
        10% {
        stroke-dashoffset: 1302;
        }
        70% {
        stroke-dashoffset: 0;
        }
        100% {
        stroke-dashoffset: 0;
        }
        }

        @keyframes cJqOodHq_draw_1 {
        10% {
        stroke-dashoffset: 10582;
        }
        70% {
        stroke-dashoffset: 0;
        }
        100% {
        stroke-dashoffset: 0;
        }
        }

        @keyframes fillOpacityAnimation {
        0% {
        fill-opacity: 0;
        }
        40% {
        fill-opacity: 0;
        }
        100% {
        fill-opacity: 1;
        }
        }
    </style>
</svg>
